<?xml version="1.0" encoding="UTF-8" standalone="no"?>
<!-- Created with Inkscape (http://www.inkscape.org/) -->

<svg
   xmlns:dc="http://purl.org/dc/elements/1.1/"
   xmlns:cc="http://creativecommons.org/ns#"
   xmlns:rdf="http://www.w3.org/1999/02/22-rdf-syntax-ns#"
   xmlns:svg="http://www.w3.org/2000/svg"
   xmlns="http://www.w3.org/2000/svg"
   xmlns:xlink="http://www.w3.org/1999/xlink"
   xmlns:sodipodi="http://sodipodi.sourceforge.net/DTD/sodipodi-0.dtd"
   xmlns:inkscape="http://www.inkscape.org/namespaces/inkscape"
   width="36"
   height="36.001503"
   viewBox="0 0 9.5249996 9.5253972"
   version="1.1"
   id="svg16908"
   inkscape:version="0.91 r13725"
   sodipodi:docname="Davies1900hvia.svg">
  <defs
     id="defs16902">
    <linearGradient
       inkscape:collect="always"
       id="linearGradient1413">
      <stop
         style="stop-color:#282828;stop-opacity:1"
         offset="0"
         id="stop1409" />
      <stop
         style="stop-color:#323232;stop-opacity:1"
         offset="1"
         id="stop1411" />
    </linearGradient>
    <clipPath
       clipPathUnits="userSpaceOnUse"
       id="clipPath6367">
      <path
         d="M 0,3193 H 2089 V 0 H 0 Z"
         id="path6365"
         inkscape:connector-curvature="0" />
    </clipPath>
    <radialGradient
       inkscape:collect="always"
       xlink:href="#linearGradient1413"
       id="radialGradient1415"
       cx="234.8584"
       cy="127.99515"
       fx="234.8584"
       fy="127.99515"
       r="4.762465"
       gradientTransform="matrix(1,0,0,1.0000525,0,-0.00671896)"
       gradientUnits="userSpaceOnUse" />
  </defs>
  <sodipodi:namedview
     id="base"
     pagecolor="#ffffff"
     bordercolor="#666666"
     borderopacity="1.0"
     inkscape:pageopacity="0.0"
     inkscape:pageshadow="2"
     inkscape:zoom="15.839192"
     inkscape:cx="7.5355971"
     inkscape:cy="16.527381"
     inkscape:document-units="mm"
     inkscape:current-layer="layer1"
     showgrid="false"
     fit-margin-top="0"
     fit-margin-left="0"
     fit-margin-right="0"
     fit-margin-bottom="0"
     inkscape:window-width="1873"
     inkscape:window-height="1056"
     inkscape:window-x="47"
     inkscape:window-y="24"
     inkscape:window-maximized="1"
     units="px"
     inkscape:snap-object-midpoints="true" />
  <metadata
     id="metadata16905">
    <rdf:RDF>
      <cc:Work
         rdf:about="">
        <dc:format>image/svg+xml</dc:format>
        <dc:type
           rdf:resource="http://purl.org/dc/dcmitype/StillImage" />
        <dc:title />
      </cc:Work>
    </rdf:RDF>
  </metadata>
  <g
     inkscape:label="Layer 1"
     inkscape:groupmode="layer"
     id="layer1"
     transform="translate(-230.09585,-123.23243)">
    <path
       inkscape:connector-curvature="0"
       id="path6449"
       style="fill:url(#radialGradient1415);fill-opacity:1;fill-rule:evenodd;stroke:none;stroke-width:0.35277778"
       d="m 239.59386,127.49189 c -0.20902,-0.3384 -0.56091,-0.67124 -0.7567,-1.14484 -0.19579,-0.47201 -0.18282,-0.95486 -0.27331,-1.34062 -0.21299,-0.26379 -0.45269,-0.50323 -0.71674,-0.71648 -0.38603,-0.0902 -0.86836,-0.0775 -1.34089,-0.27331 -0.4736,-0.19632 -0.80644,-0.54742 -1.14431,-0.7567 -0.16536,-0.0175 -0.33337,-0.0275 -0.50323,-0.0275 -0.17039,0 -0.3384,0.0101 -0.5035,0.0275 -0.33839,0.20928 -0.67124,0.56038 -1.14483,0.7567 -0.47201,0.19579 -0.95434,0.18309 -1.34063,0.27331 -0.26378,0.21325 -0.50376,0.45269 -0.71648,0.71648 -0.0905,0.38576 -0.0778,0.86861 -0.27384,1.34062 -0.19579,0.4736 -0.54742,0.80644 -0.75617,1.14484 -0.0175,0.16536 -0.0273,0.33337 -0.0273,0.50323 0,0.17013 0.01,0.33813 0.0273,0.50402 0.20875,0.33787 0.56038,0.67071 0.75617,1.14431 0.19605,0.47201 0.18335,0.95487 0.27384,1.34036 0.21272,0.26405 0.4527,0.50376 0.71648,0.71675 0.38629,0.0905 0.86862,0.0775 1.34063,0.27304 0.47359,0.19659 0.80644,0.54795 1.14483,0.75697 0.1651,0.0172 0.33311,0.0273 0.5035,0.0273 0.16986,0 0.33787,-0.0101 0.50323,-0.0273 0.33787,-0.20902 0.67071,-0.56038 1.14431,-0.75697 0.47253,-0.19552 0.95486,-0.18256 1.34089,-0.27304 0.26405,-0.21299 0.50375,-0.4527 0.71674,-0.71675 0.0905,-0.38549 0.0775,-0.86835 0.27331,-1.34036 0.19579,-0.4736 0.54768,-0.80644 0.7567,-1.14431 0.0172,-0.16589 0.027,-0.33389 0.027,-0.50402 0,-0.16986 -0.01,-0.33787 -0.027,-0.50323" />
    <g
       style="stroke-width:1.33335185"
       id="g6451"
       transform="matrix(0.26457966,0,0,-0.26457966,235.01668,123.25087)">
      <path
         d="M 0,0 C -0.195,0.045 -0.393,0.069 -0.598,0.069 -0.804,0.069 -1.002,0.045 -1.196,0 V -18.157 H 0 Z"
         style="fill:#ffffff;fill-opacity:1;fill-rule:evenodd;stroke:none;stroke-width:1.33335185"
         id="path6453"
         inkscape:connector-curvature="0" />
    </g>
  </g>
</svg>
