<?xml version="1.0" encoding="UTF-8" standalone="no"?>
<svg
   xmlns:dc="http://purl.org/dc/elements/1.1/"
   xmlns:cc="http://creativecommons.org/ns#"
   xmlns:rdf="http://www.w3.org/1999/02/22-rdf-syntax-ns#"
   xmlns:svg="http://www.w3.org/2000/svg"
   xmlns="http://www.w3.org/2000/svg"
   xmlns:xlink="http://www.w3.org/1999/xlink"
   xmlns:sodipodi="http://sodipodi.sourceforge.net/DTD/sodipodi-0.dtd"
   xmlns:inkscape="http://www.inkscape.org/namespaces/inkscape"
   id="svg1136"
   viewBox="0 0 2513.609 2513.6097"
   height="24.13063"
   width="24.13063"
   version="1.1"
   inkscape:version="0.91 r13725"
   sodipodi:docname="freq_button.svg">
  <sodipodi:namedview
     pagecolor="#ffffff"
     bordercolor="#666666"
     borderopacity="1"
     objecttolerance="10"
     gridtolerance="10"
     guidetolerance="10"
     inkscape:pageopacity="0"
     inkscape:pageshadow="2"
     inkscape:window-width="1873"
     inkscape:window-height="1056"
     id="namedview10699"
     showgrid="false"
     inkscape:zoom="39.120403"
     inkscape:cx="9.7186417"
     inkscape:cy="10.94687"
     inkscape:window-x="47"
     inkscape:window-y="24"
     inkscape:window-maximized="1"
     inkscape:current-layer="svg1136" />
  <metadata
     id="metadata1142">
    <rdf:RDF>
      <cc:Work
         rdf:about="">
        <dc:format>image/svg+xml</dc:format>
        <dc:type
           rdf:resource="http://purl.org/dc/dcmitype/StillImage" />
        <dc:title>SVG Picture created as interpolator_f0-brd.svg date 2018/01/20 21:57:13 </dc:title>
      </cc:Work>
    </rdf:RDF>
  </metadata>
  <defs
     id="defs1140">
    <linearGradient
       id="linearGradient2770">
      <stop
         id="stop2766"
         offset="0"
         style="stop-color:#484848;stop-opacity:1" />
      <stop
         id="stop2768"
         offset="1"
         style="stop-color:#000000;stop-opacity:1" />
    </linearGradient>
    <linearGradient
       id="linearGradient2038">
      <stop
         id="stop2034"
         offset="0"
         style="stop-color:#ffffff;stop-opacity:1;" />
      <stop
         id="stop2036"
         offset="1"
         style="stop-color:#ffffff;stop-opacity:0;" />
    </linearGradient>
    <linearGradient
       id="linearGradient1965">
      <stop
         id="stop1961"
         offset="0"
         style="stop-color:#f2f2f2;stop-opacity:1;" />
      <stop
         id="stop1963"
         offset="1"
         style="stop-color:#323232;stop-opacity:1" />
    </linearGradient>
    <radialGradient
       gradientUnits="userSpaceOnUse"
       r="748.03101"
       fy="63189"
       fx="10614.2"
       cy="63189"
       cx="10614.2"
       id="radialGradient2068"
       xlink:href="#linearGradient1965" />
    <radialGradient
       gradientUnits="userSpaceOnUse"
       r="590.5"
       fy="63189"
       fx="10614.2"
       cy="63189"
       cx="10614.2"
       id="radialGradient2080"
       xlink:href="#linearGradient2038" />
    <radialGradient
       gradientUnits="userSpaceOnUse"
       r="748.03101"
       fy="63189"
       fx="10614.2"
       cy="63189"
       cx="10614.2"
       id="radialGradient2068-9"
       xlink:href="#linearGradient1965" />
    <radialGradient
       gradientUnits="userSpaceOnUse"
       r="590.5"
       fy="63189"
       fx="10614.2"
       cy="63189"
       cx="10614.2"
       id="radialGradient2080-1"
       xlink:href="#linearGradient2038" />
    <radialGradient
       gradientUnits="userSpaceOnUse"
       r="748.03101"
       fy="63189"
       fx="10614.2"
       cy="63189"
       cx="10614.2"
       id="radialGradient2068-2"
       xlink:href="#linearGradient1965" />
    <radialGradient
       gradientUnits="userSpaceOnUse"
       r="590.5"
       fy="63189"
       fx="10614.2"
       cy="63189"
       cx="10614.2"
       id="radialGradient2080-8"
       xlink:href="#linearGradient2038" />
    <radialGradient
       gradientUnits="userSpaceOnUse"
       r="1397.64"
       fy="33661.398"
       fx="9291.3398"
       cy="33661.398"
       cx="9291.3398"
       id="radialGradient2803"
       xlink:href="#linearGradient2770" />
    <radialGradient
       gradientUnits="userSpaceOnUse"
       r="1397.64"
       fy="33661.398"
       fx="9291.3398"
       cy="33661.398"
       cx="9291.3398"
       id="radialGradient2803-6"
       xlink:href="#linearGradient2770" />
    <radialGradient
       gradientUnits="userSpaceOnUse"
       r="1397.64"
       fy="33661.398"
       fx="9291.3398"
       cy="33661.398"
       cx="9291.3398"
       id="radialGradient2803-60"
       xlink:href="#linearGradient2770" />
    <radialGradient
       gradientUnits="userSpaceOnUse"
       r="1397.64"
       fy="33661.398"
       fx="9291.3398"
       cy="33661.398"
       cx="9291.3398"
       id="radialGradient2803-1"
       xlink:href="#linearGradient2770" />
    <radialGradient
       gradientUnits="userSpaceOnUse"
       r="1397.64"
       fy="33661.398"
       fx="9291.3398"
       cy="33661.398"
       cx="9291.3398"
       id="radialGradient2803-7"
       xlink:href="#linearGradient2770" />
    <radialGradient
       gradientUnits="userSpaceOnUse"
       r="1397.64"
       fy="33661.398"
       fx="9291.3398"
       cy="33661.398"
       cx="9291.3398"
       id="radialGradient2803-14"
       xlink:href="#linearGradient2770" />
    <linearGradient
       y2="39731.41"
       x2="9585.2256"
       y1="39731.41"
       x1="6438.394"
       gradientUnits="userSpaceOnUse"
       id="linearGradient2708"
       xlink:href="#linearGradient4775" />
    <linearGradient
       id="linearGradient4775">
      <stop
         id="stop4771"
         offset="0"
         style="stop-color:#000000;stop-opacity:1" />
      <stop
         style="stop-color:#282828;stop-opacity:1"
         offset="0.50166672"
         id="stop4781" />
      <stop
         id="stop4773"
         offset="1"
         style="stop-color:#000000;stop-opacity:1" />
    </linearGradient>
    <linearGradient
       y2="39731.41"
       x2="9585.2256"
       y1="39731.41"
       x1="6438.394"
       gradientUnits="userSpaceOnUse"
       id="linearGradient2704"
       xlink:href="#linearGradient2530-8"
       gradientTransform="matrix(0.78153603,0,0,0.78153603,-5004.7136,-29743.133)" />
    <linearGradient
       id="linearGradient2530-8">
      <stop
         style="stop-color:#000000;stop-opacity:1"
         offset="0"
         id="stop2526-9" />
      <stop
         id="stop4787"
         offset="0.50431395"
         style="stop-color:#282828;stop-opacity:1" />
      <stop
         style="stop-color:#000000;stop-opacity:1"
         offset="1"
         id="stop2528-9" />
    </linearGradient>
  </defs>
  <title
     id="title10">SVG Picture created as interpolator_f0-brd.svg date 2018/01/20 21:57:13 </title>
  <desc
     id="desc12">Picture generated by PCBNEW </desc>
  <g
     transform="matrix(0.78153617,0,0,0.78153617,-13004.668,-29743.139)"
     id="g14"
     style="fill:#000000;fill-opacity:1;stroke:#000000;stroke-linecap:round;stroke-linejoin:round;stroke-opacity:1" />
  <g
     transform="matrix(0.78153617,0,0,0.78153617,-13004.668,-29743.139)"
     id="g16"
     style="fill:#000000;fill-opacity:0;stroke:#000000;stroke-width:-0.0003937;stroke-linecap:round;stroke-linejoin:round;stroke-opacity:1" />
  <g
     transform="matrix(0.78153617,0,0,0.78153617,-13004.668,-29743.139)"
     id="g18"
     style="fill:#840000;fill-opacity:0;stroke:#840000;stroke-width:-0.0003937;stroke-linecap:round;stroke-linejoin:round;stroke-opacity:1" />
  <g
     transform="matrix(0.78153617,0,0,0.78153617,-13004.668,-29743.139)"
     id="g24"
     style="fill:#840000;fill-opacity:1;stroke:#840000;stroke-width:1260;stroke-linecap:round;stroke-linejoin:round;stroke-opacity:1" />
  <g
     transform="matrix(0.78153617,0,0,0.78153617,-13004.668,-29743.139)"
     id="g38"
     style="fill:#840000;fill-opacity:1;stroke:#840000;stroke-width:39.37009811;stroke-linecap:round;stroke-linejoin:round;stroke-opacity:1" />
  <g
     transform="matrix(0.78153617,0,0,0.78153617,-13004.668,-29743.139)"
     id="g44"
     style="fill:#840000;fill-opacity:1;stroke:#840000;stroke-width:39.37009811;stroke-linecap:round;stroke-linejoin:round;stroke-opacity:1" />
  <g
     transform="matrix(0.78153617,0,0,0.78153617,-13004.668,-29743.139)"
     id="g46"
     style="fill:#840000;fill-opacity:1;stroke:#840000;stroke-width:2952.76000977;stroke-linecap:round;stroke-linejoin:round;stroke-opacity:1" />
  <g
     transform="matrix(0.78153617,0,0,0.78153617,-13004.668,-29743.139)"
     id="g58"
     style="fill:#840000;fill-opacity:1;stroke:#840000;stroke-width:39.37009811;stroke-linecap:round;stroke-linejoin:round;stroke-opacity:1" />
  <g
     transform="matrix(0.78153617,0,0,0.78153617,-13004.668,-29743.139)"
     id="g64"
     style="fill:#840000;fill-opacity:1;stroke:#840000;stroke-width:39.37009811;stroke-linecap:round;stroke-linejoin:round;stroke-opacity:1" />
  <g
     transform="matrix(0.78153617,0,0,0.78153617,-13004.668,-29743.139)"
     id="g66"
     style="fill:#840000;fill-opacity:1;stroke:#840000;stroke-width:2952.76000977;stroke-linecap:round;stroke-linejoin:round;stroke-opacity:1" />
  <g
     transform="matrix(0.78153617,0,0,0.78153617,-13004.668,-29743.139)"
     id="g78"
     style="fill:#840000;fill-opacity:1;stroke:#840000;stroke-width:39.37009811;stroke-linecap:round;stroke-linejoin:round;stroke-opacity:1" />
  <g
     transform="matrix(0.78153617,0,0,0.78153617,-13004.668,-29743.139)"
     id="g80"
     style="fill:#840000;fill-opacity:1;stroke:#840000;stroke-width:2952.76000977;stroke-linecap:round;stroke-linejoin:round;stroke-opacity:1" />
  <g
     transform="matrix(0.78153617,0,0,0.78153617,-13004.668,-29743.139)"
     id="g98"
     style="fill:#840000;fill-opacity:1;stroke:#840000;stroke-width:39.37009811;stroke-linecap:round;stroke-linejoin:round;stroke-opacity:1" />
  <g
     transform="matrix(0.78153617,0,0,0.78153617,-13004.668,-29743.139)"
     id="g100"
     style="fill:#840000;fill-opacity:1;stroke:#840000;stroke-width:2952.76000977;stroke-linecap:round;stroke-linejoin:round;stroke-opacity:1" />
  <g
     transform="matrix(0.78153617,0,0,0.78153617,-13004.668,-29743.139)"
     id="g110"
     style="fill:#840000;fill-opacity:1;stroke:#840000;stroke-width:39.37009811;stroke-linecap:round;stroke-linejoin:round;stroke-opacity:1" />
  <g
     transform="matrix(0.78153617,0,0,0.78153617,-13004.668,-29743.139)"
     id="g116"
     style="fill:#840000;fill-opacity:1;stroke:#840000;stroke-width:39.37009811;stroke-linecap:round;stroke-linejoin:round;stroke-opacity:1" />
  <g
     transform="matrix(0.78153617,0,0,0.78153617,-13004.668,-29743.139)"
     id="g122"
     style="fill:#840000;fill-opacity:1;stroke:#840000;stroke-width:39.37009811;stroke-linecap:round;stroke-linejoin:round;stroke-opacity:1" />
  <g
     transform="matrix(0.78153617,0,0,0.78153617,-13004.668,-29743.139)"
     id="g124"
     style="fill:#840000;fill-opacity:1;stroke:#840000;stroke-width:1260;stroke-linecap:round;stroke-linejoin:round;stroke-opacity:1" />
  <circle
     cx="1256.8046"
     cy="1256.8051"
     r="1230.7629"
     id="circle142-74"
     style="fill:#000000;fill-opacity:1;stroke:#282828;stroke-width:52.08336639;stroke-linecap:round;stroke-linejoin:round;stroke-miterlimit:4;stroke-dasharray:none;stroke-opacity:1" />
  <g
     transform="matrix(0.78153617,0,0,0.78153617,-13004.668,-29743.139)"
     id="g134"
     style="fill:#840000;fill-opacity:1;stroke:#840000;stroke-width:39.37009811;stroke-linecap:round;stroke-linejoin:round;stroke-opacity:1" />
  <g
     transform="matrix(0.78153617,0,0,0.78153617,-13004.668,-29743.139)"
     id="g140"
     style="fill:#840000;fill-opacity:1;stroke:#840000;stroke-width:39.37009811;stroke-linecap:round;stroke-linejoin:round;stroke-opacity:1" />
  <g
     transform="matrix(0.78153617,0,0,0.78153617,-13004.668,-29743.139)"
     id="g146"
     style="fill:#840000;fill-opacity:1;stroke:#840000;stroke-width:39.37009811;stroke-linecap:round;stroke-linejoin:round;stroke-opacity:1" />
  <g
     transform="matrix(0.78153617,0,0,0.78153617,-13004.668,-29743.139)"
     id="g152"
     style="fill:#840000;fill-opacity:1;stroke:#840000;stroke-width:39.37009811;stroke-linecap:round;stroke-linejoin:round;stroke-opacity:1" />
  <g
     transform="matrix(0.78153617,0,0,0.78153617,-13004.668,-29743.139)"
     id="g158"
     style="fill:#840000;fill-opacity:1;stroke:#840000;stroke-width:39.37009811;stroke-linecap:round;stroke-linejoin:round;stroke-opacity:1" />
  <g
     transform="matrix(0.78153617,0,0,0.78153617,-13004.668,-29743.139)"
     id="g164"
     style="fill:#840000;fill-opacity:1;stroke:#840000;stroke-width:39.37009811;stroke-linecap:round;stroke-linejoin:round;stroke-opacity:1" />
  <g
     transform="matrix(0.78153617,0,0,0.78153617,-13004.668,-29743.139)"
     id="g170"
     style="fill:#840000;fill-opacity:1;stroke:#840000;stroke-width:39.37009811;stroke-linecap:round;stroke-linejoin:round;stroke-opacity:1" />
  <g
     transform="matrix(0.78153617,0,0,0.78153617,-13004.668,-29743.139)"
     id="g176"
     style="fill:#840000;fill-opacity:1;stroke:#840000;stroke-width:39.37009811;stroke-linecap:round;stroke-linejoin:round;stroke-opacity:1" />
  <g
     transform="matrix(0.78153617,0,0,0.78153617,-13004.668,-29743.139)"
     id="g178"
     style="fill:#840000;fill-opacity:1;stroke:#840000;stroke-width:1260;stroke-linecap:round;stroke-linejoin:round;stroke-opacity:1" />
  <g
     transform="matrix(0.78153617,0,0,0.78153617,-13004.668,-29743.139)"
     id="g190"
     style="fill:#840000;fill-opacity:1;stroke:#840000;stroke-width:39.37009811;stroke-linecap:round;stroke-linejoin:round;stroke-opacity:1" />
  <g
     transform="matrix(0.78153617,0,0,0.78153617,-13004.668,-29743.139)"
     id="g192"
     style="fill:#840000;fill-opacity:1;stroke:#840000;stroke-width:2952.76000977;stroke-linecap:round;stroke-linejoin:round;stroke-opacity:1" />
  <g
     transform="matrix(0.78153617,0,0,0.78153617,-13004.668,-29743.139)"
     id="g210"
     style="fill:#840000;fill-opacity:1;stroke:#840000;stroke-width:39.37009811;stroke-linecap:round;stroke-linejoin:round;stroke-opacity:1" />
  <g
     transform="matrix(0.78153617,0,0,0.78153617,-13004.668,-29743.139)"
     id="g212"
     style="fill:#c2c2c2;fill-opacity:1;stroke:#c2c2c2;stroke-width:39.37009811;stroke-linecap:round;stroke-linejoin:round;stroke-opacity:1" />
  <g
     transform="matrix(0.78153617,0,0,0.78153617,-13004.668,-29743.139)"
     id="g218"
     style="fill:#c2c2c2;fill-opacity:1;stroke:#c2c2c2;stroke-width:39.37009811;stroke-linecap:round;stroke-linejoin:round;stroke-opacity:1" />
  <g
     transform="matrix(0.78153617,0,0,0.78153617,-13004.668,-29743.139)"
     id="g224"
     style="fill:#c2c2c2;fill-opacity:1;stroke:#c2c2c2;stroke-width:39.37009811;stroke-linecap:round;stroke-linejoin:round;stroke-opacity:1" />
  <g
     transform="matrix(0.78153617,0,0,0.78153617,-13004.668,-29743.139)"
     id="g230"
     style="fill:#c2c2c2;fill-opacity:1;stroke:#c2c2c2;stroke-width:39.37009811;stroke-linecap:round;stroke-linejoin:round;stroke-opacity:1" />
  <g
     transform="matrix(0.78153617,0,0,0.78153617,-13004.668,-29743.139)"
     id="g236"
     style="fill:#c2c2c2;fill-opacity:1;stroke:#c2c2c2;stroke-width:39.37009811;stroke-linecap:round;stroke-linejoin:round;stroke-opacity:1" />
  <g
     transform="matrix(0.78153617,0,0,0.78153617,-13004.668,-29743.139)"
     id="g242"
     style="fill:#c2c2c2;fill-opacity:1;stroke:#c2c2c2;stroke-width:39.37009811;stroke-linecap:round;stroke-linejoin:round;stroke-opacity:1" />
  <g
     transform="matrix(0.78153617,0,0,0.78153617,-13004.668,-29743.139)"
     id="g248"
     style="fill:#c2c2c2;fill-opacity:1;stroke:#c2c2c2;stroke-width:39.37009811;stroke-linecap:round;stroke-linejoin:round;stroke-opacity:1" />
  <g
     transform="matrix(0.78153617,0,0,0.78153617,-13004.668,-29743.139)"
     id="g250"
     style="fill:#840000;fill-opacity:1;stroke:#840000;stroke-width:39.37009811;stroke-linecap:round;stroke-linejoin:round;stroke-opacity:1" />
  <g
     transform="matrix(0.78153617,0,0,0.78153617,-13004.668,-29743.139)"
     id="g252"
     style="fill:#840000;fill-opacity:1;stroke:#840000;stroke-width:196.8500061;stroke-linecap:round;stroke-linejoin:round;stroke-opacity:1" />
  <g
     transform="matrix(0.78153617,0,0,0.78153617,-13004.668,-29743.139)"
     id="g310"
     style="fill:#ffffff;fill-opacity:1;stroke:#ffffff;stroke-width:100;stroke-linecap:round;stroke-linejoin:round;stroke-opacity:1" />
  <g
     transform="matrix(0.78153617,0,0,0.78153617,-13004.668,-29743.139)"
     id="g316"
     style="fill:#ffffff;fill-opacity:1;stroke:#ffffff;stroke-width:39.37009811;stroke-linecap:round;stroke-linejoin:round;stroke-opacity:1" />
  <g
     transform="matrix(0.78153617,0,0,0.78153617,-13004.668,-29743.139)"
     id="g322"
     style="fill:#ffffff;fill-opacity:1;stroke:#ffffff;stroke-width:39.37009811;stroke-linecap:round;stroke-linejoin:round;stroke-opacity:1" />
  <g
     transform="matrix(0.78153617,0,0,0.78153617,-13004.668,-29743.139)"
     id="g328"
     style="fill:#ffffff;fill-opacity:1;stroke:#ffffff;stroke-width:39.37009811;stroke-linecap:round;stroke-linejoin:round;stroke-opacity:1" />
  <g
     transform="matrix(0.78153617,0,0,0.78153617,-13004.668,-29743.139)"
     id="g334"
     style="fill:#ffffff;fill-opacity:1;stroke:#ffffff;stroke-width:39.37009811;stroke-linecap:round;stroke-linejoin:round;stroke-opacity:1" />
  <g
     transform="matrix(0.78153617,0,0,0.78153617,-13004.668,-29743.139)"
     id="g340"
     style="fill:#ffffff;fill-opacity:1;stroke:#ffffff;stroke-width:39.37009811;stroke-linecap:round;stroke-linejoin:round;stroke-opacity:1" />
  <g
     transform="matrix(0.78153617,0,0,0.78153617,-13004.668,-29743.139)"
     id="g346"
     style="fill:#ffffff;fill-opacity:1;stroke:#ffffff;stroke-width:39.37009811;stroke-linecap:round;stroke-linejoin:round;stroke-opacity:1" />
  <g
     transform="matrix(0.78153617,0,0,0.78153617,-13004.668,-29743.139)"
     id="g348"
     style="fill:#ffffff;fill-opacity:1;stroke:#ffffff;stroke-width:1260;stroke-linecap:round;stroke-linejoin:round;stroke-opacity:1" />
  <g
     transform="matrix(0.78153617,0,0,0.78153617,-13004.668,-29743.139)"
     id="g358"
     style="fill:#ffffff;fill-opacity:1;stroke:#ffffff;stroke-width:39.37009811;stroke-linecap:round;stroke-linejoin:round;stroke-opacity:1" />
  <g
     transform="matrix(0.78153617,0,0,0.78153617,-13004.668,-29743.139)"
     id="g364"
     style="fill:#ffffff;fill-opacity:1;stroke:#ffffff;stroke-width:39.37009811;stroke-linecap:round;stroke-linejoin:round;stroke-opacity:1" />
  <g
     transform="matrix(0.78153617,0,0,0.78153617,-13004.668,-29743.139)"
     id="g370"
     style="fill:#ffffff;fill-opacity:1;stroke:#ffffff;stroke-width:39.37009811;stroke-linecap:round;stroke-linejoin:round;stroke-opacity:1" />
  <g
     transform="matrix(0.78153617,0,0,0.78153617,-13004.668,-29743.139)"
     id="g376"
     style="fill:#ffffff;fill-opacity:1;stroke:#ffffff;stroke-width:39.37009811;stroke-linecap:round;stroke-linejoin:round;stroke-opacity:1" />
  <g
     transform="matrix(0.78153617,0,0,0.78153617,-13004.668,-29743.139)"
     id="g382"
     style="fill:#ffffff;fill-opacity:1;stroke:#ffffff;stroke-width:39.37009811;stroke-linecap:round;stroke-linejoin:round;stroke-opacity:1" />
  <g
     transform="matrix(0.78153617,0,0,0.78153617,-13004.668,-29743.139)"
     id="g388"
     style="fill:#ffffff;fill-opacity:1;stroke:#ffffff;stroke-width:39.37009811;stroke-linecap:round;stroke-linejoin:round;stroke-opacity:1" />
  <g
     transform="matrix(0.78153617,0,0,0.78153617,-13004.668,-29743.139)"
     id="g394"
     style="fill:#ffffff;fill-opacity:1;stroke:#ffffff;stroke-width:39.37009811;stroke-linecap:round;stroke-linejoin:round;stroke-opacity:1" />
  <g
     transform="matrix(0.78153617,0,0,0.78153617,-13004.668,-29743.139)"
     id="g400"
     style="fill:#ffffff;fill-opacity:1;stroke:#ffffff;stroke-width:39.37009811;stroke-linecap:round;stroke-linejoin:round;stroke-opacity:1" />
  <g
     transform="matrix(0.78153617,0,0,0.78153617,-13004.668,-29743.139)"
     id="g406"
     style="fill:#ffffff;fill-opacity:1;stroke:#ffffff;stroke-width:39.37009811;stroke-linecap:round;stroke-linejoin:round;stroke-opacity:1" />
  <g
     transform="matrix(0.78153617,0,0,0.78153617,-13004.668,-29743.139)"
     id="g412"
     style="fill:#ffffff;fill-opacity:1;stroke:#ffffff;stroke-width:39.37009811;stroke-linecap:round;stroke-linejoin:round;stroke-opacity:1" />
  <g
     transform="matrix(0.78153617,0,0,0.78153617,-13004.668,-29743.139)"
     id="g418"
     style="fill:#ffffff;fill-opacity:1;stroke:#ffffff;stroke-width:39.37009811;stroke-linecap:round;stroke-linejoin:round;stroke-opacity:1" />
  <g
     transform="matrix(0.78153617,0,0,0.78153617,-13004.668,-29743.139)"
     id="g424"
     style="fill:#ffffff;fill-opacity:1;stroke:#ffffff;stroke-width:39.37009811;stroke-linecap:round;stroke-linejoin:round;stroke-opacity:1" />
  <g
     transform="matrix(0.78153617,0,0,0.78153617,-13004.668,-29743.139)"
     id="g430"
     style="fill:#ffffff;fill-opacity:1;stroke:#ffffff;stroke-width:39.37009811;stroke-linecap:round;stroke-linejoin:round;stroke-opacity:1" />
  <g
     transform="matrix(0.78153617,0,0,0.78153617,-13004.668,-29743.139)"
     id="g432"
     style="fill:#ffffff;fill-opacity:1;stroke:#ffffff;stroke-width:1260;stroke-linecap:round;stroke-linejoin:round;stroke-opacity:1" />
  <g
     transform="matrix(0.78153617,0,0,0.78153617,-13004.668,-29743.139)"
     id="g442"
     style="fill:#ffffff;fill-opacity:1;stroke:#ffffff;stroke-width:39.37009811;stroke-linecap:round;stroke-linejoin:round;stroke-opacity:1" />
  <g
     transform="matrix(0.78153617,0,0,0.78153617,-13004.668,-29743.139)"
     id="g448"
     style="fill:#ffffff;fill-opacity:1;stroke:#ffffff;stroke-width:39.37009811;stroke-linecap:round;stroke-linejoin:round;stroke-opacity:1" />
  <g
     transform="matrix(0.78153617,0,0,0.78153617,-13004.668,-29743.139)"
     id="g454"
     style="fill:#ffffff;fill-opacity:1;stroke:#ffffff;stroke-width:39.37009811;stroke-linecap:round;stroke-linejoin:round;stroke-opacity:1" />
  <g
     transform="matrix(0.78153617,0,0,0.78153617,-13004.668,-29743.139)"
     id="g460"
     style="fill:#ffffff;fill-opacity:1;stroke:#ffffff;stroke-width:39.37009811;stroke-linecap:round;stroke-linejoin:round;stroke-opacity:1" />
  <g
     transform="matrix(0.78153617,0,0,0.78153617,-13004.668,-29743.139)"
     id="g466"
     style="fill:#ffffff;fill-opacity:1;stroke:#ffffff;stroke-width:39.37009811;stroke-linecap:round;stroke-linejoin:round;stroke-opacity:1" />
  <g
     transform="matrix(0.78153617,0,0,0.78153617,-13004.668,-29743.139)"
     id="g468"
     style="fill:#ffffff;fill-opacity:1;stroke:#ffffff;stroke-width:1260;stroke-linecap:round;stroke-linejoin:round;stroke-opacity:1" />
  <g
     transform="matrix(0.78153617,0,0,0.78153617,-13004.668,-29743.139)"
     id="g478"
     style="fill:#ffffff;fill-opacity:1;stroke:#ffffff;stroke-width:39.37009811;stroke-linecap:round;stroke-linejoin:round;stroke-opacity:1" />
  <g
     transform="matrix(0.78153617,0,0,0.78153617,-13004.668,-29743.139)"
     id="g480"
     style="fill:#ffffff;fill-opacity:1;stroke:#ffffff;stroke-width:1260;stroke-linecap:round;stroke-linejoin:round;stroke-opacity:1" />
  <g
     transform="matrix(0.78153617,0,0,0.78153617,-13004.668,-29743.139)"
     id="g492"
     style="fill:#ffffff;fill-opacity:1;stroke:#ffffff;stroke-width:39.37009811;stroke-linecap:round;stroke-linejoin:round;stroke-opacity:1" />
  <g
     transform="matrix(0.78153617,0,0,0.78153617,-13004.668,-29743.139)"
     id="g498"
     style="fill:#ffffff;fill-opacity:1;stroke:#ffffff;stroke-width:39.37009811;stroke-linecap:round;stroke-linejoin:round;stroke-opacity:1" />
  <g
     transform="matrix(0.78153617,0,0,0.78153617,-13004.668,-29743.139)"
     id="g500"
     style="fill:#ffffff;fill-opacity:1;stroke:#ffffff;stroke-width:1260;stroke-linecap:round;stroke-linejoin:round;stroke-opacity:1" />
  <g
     transform="matrix(0.78153617,0,0,0.78153617,-13004.668,-29743.139)"
     id="g510"
     style="fill:#ffffff;fill-opacity:1;stroke:#ffffff;stroke-width:39.37009811;stroke-linecap:round;stroke-linejoin:round;stroke-opacity:1" />
  <g
     transform="matrix(0.78153617,0,0,0.78153617,-13004.668,-29743.139)"
     id="g516"
     style="fill:#ffffff;fill-opacity:1;stroke:#ffffff;stroke-width:39.37009811;stroke-linecap:round;stroke-linejoin:round;stroke-opacity:1" />
  <g
     transform="matrix(0.78153617,0,0,0.78153617,-13004.668,-29743.139)"
     id="g518"
     style="fill:#000000;fill-opacity:1;stroke:#000000;stroke-width:39.37009811;stroke-linecap:round;stroke-linejoin:round;stroke-opacity:1" />
  <g
     transform="matrix(0.78153617,0,0,0.78153617,-13004.668,-29743.139)"
     id="g520"
     style="fill:#840084;fill-opacity:1;stroke:#840084;stroke-width:39.37009811;stroke-linecap:round;stroke-linejoin:round;stroke-opacity:1" />
  <g
     transform="matrix(0.78153617,0,0,0.78153617,-13004.668,-29743.139)"
     id="g522"
     style="fill:#840084;fill-opacity:1;stroke:#840084;stroke-width:393.70098877;stroke-linecap:round;stroke-linejoin:round;stroke-opacity:1" />
  <g
     transform="matrix(0.78153617,0,0,0.78153617,-13004.668,-29743.139)"
     id="g558"
     style="fill:#840000;fill-opacity:0;stroke:#840000;stroke-width:118.11000061;stroke-linecap:round;stroke-linejoin:round;stroke-opacity:1" />
  <g
     transform="matrix(0.78153617,0,0,0.78153617,-13004.668,-29743.139)"
     id="g572"
     style="fill:#840000;fill-opacity:1;stroke:#840000;stroke-width:39.37009811;stroke-linecap:round;stroke-linejoin:round;stroke-opacity:1" />
  <g
     transform="matrix(0.78153617,0,0,0.78153617,-13004.668,-29743.139)"
     id="g578"
     style="fill:#840000;fill-opacity:1;stroke:#840000;stroke-width:39.37009811;stroke-linecap:round;stroke-linejoin:round;stroke-opacity:1" />
  <g
     transform="matrix(0.78153617,0,0,0.78153617,-13004.668,-29743.139)"
     id="g580"
     style="fill:#840000;fill-opacity:1;stroke:#840000;stroke-width:3110.23999023;stroke-linecap:round;stroke-linejoin:round;stroke-opacity:1" />
  <g
     transform="matrix(0.78153617,0,0,0.78153617,-13004.668,-29743.139)"
     id="g592"
     style="fill:#840000;fill-opacity:1;stroke:#840000;stroke-width:39.37009811;stroke-linecap:round;stroke-linejoin:round;stroke-opacity:1" />
  <g
     transform="matrix(0.78153617,0,0,0.78153617,-13004.668,-29743.139)"
     id="g598"
     style="fill:#840000;fill-opacity:1;stroke:#840000;stroke-width:39.37009811;stroke-linecap:round;stroke-linejoin:round;stroke-opacity:1" />
  <g
     transform="matrix(0.78153617,0,0,0.78153617,-13004.668,-29743.139)"
     id="g600"
     style="fill:#000000;fill-opacity:1;stroke:#000000;stroke-width:39.37009811;stroke-linecap:round;stroke-linejoin:round;stroke-opacity:1" />
  <g
     transform="matrix(0.78153617,0,0,0.78153617,-13004.668,-29743.139)"
     id="g606"
     style="fill:#840000;fill-opacity:1;stroke:#840000;stroke-width:0;stroke-linecap:round;stroke-linejoin:round;stroke-opacity:1" />
  <g
     transform="matrix(0.78153617,0,0,0.78153617,-13004.668,-29743.139)"
     id="g608"
     style="fill:#840000;fill-opacity:1;stroke:#840000;stroke-width:3110.23999023;stroke-linecap:round;stroke-linejoin:round;stroke-opacity:1" />
  <g
     transform="matrix(0.78153617,0,0,0.78153617,-13004.668,-29743.139)"
     id="g620"
     style="fill:#840000;fill-opacity:1;stroke:#840000;stroke-width:39.37009811;stroke-linecap:round;stroke-linejoin:round;stroke-opacity:1" />
  <g
     transform="matrix(0.78153617,0,0,0.78153617,-13004.668,-29743.139)"
     id="g622"
     style="fill:#840000;fill-opacity:1;stroke:#840000;stroke-width:3110.23999023;stroke-linecap:round;stroke-linejoin:round;stroke-opacity:1" />
  <g
     transform="matrix(0.78153617,0,0,0.78153617,-13004.668,-29743.139)"
     id="g640"
     style="fill:#840000;fill-opacity:1;stroke:#840000;stroke-width:39.37009811;stroke-linecap:round;stroke-linejoin:round;stroke-opacity:1" />
  <g
     transform="matrix(0.78153617,0,0,0.78153617,-13004.668,-29743.139)"
     id="g642"
     style="fill:#840000;fill-opacity:1;stroke:#840000;stroke-width:3110.23999023;stroke-linecap:round;stroke-linejoin:round;stroke-opacity:1" />
  <g
     transform="matrix(0.78153617,0,0,0.78153617,-13004.668,-29743.139)"
     id="g652"
     style="fill:#840000;fill-opacity:1;stroke:#840000;stroke-width:39.37009811;stroke-linecap:round;stroke-linejoin:round;stroke-opacity:1" />
  <g
     transform="matrix(0.78153617,0,0,0.78153617,-13004.668,-29743.139)"
     id="g658"
     style="fill:#840000;fill-opacity:1;stroke:#840000;stroke-width:39.37009811;stroke-linecap:round;stroke-linejoin:round;stroke-opacity:1" />
  <g
     transform="matrix(0.78153617,0,0,0.78153617,-13004.668,-29743.139)"
     id="g664"
     style="fill:#840000;fill-opacity:1;stroke:#840000;stroke-width:39.37009811;stroke-linecap:round;stroke-linejoin:round;stroke-opacity:1" />
  <g
     transform="matrix(0.78153617,0,0,0.78153617,-13004.668,-29743.139)"
     id="g666"
     style="fill:#840000;fill-opacity:1;stroke:#840000;stroke-width:1417.47998047;stroke-linecap:round;stroke-linejoin:round;stroke-opacity:1" />
  <g
     transform="matrix(0.78153617,0,0,0.78153617,-13004.668,-29743.139)"
     id="g676"
     style="fill:#840000;fill-opacity:1;stroke:#840000;stroke-width:39.37009811;stroke-linecap:round;stroke-linejoin:round;stroke-opacity:1" />
  <g
     transform="matrix(0.78153617,0,0,0.78153617,-13004.668,-29743.139)"
     id="g682"
     style="fill:#840000;fill-opacity:1;stroke:#840000;stroke-width:39.37009811;stroke-linecap:round;stroke-linejoin:round;stroke-opacity:1" />
  <g
     transform="matrix(0.78153617,0,0,0.78153617,-13004.668,-29743.139)"
     id="g684"
     style="fill:#840000;fill-opacity:1;stroke:#840000;stroke-width:1417.47998047;stroke-linecap:round;stroke-linejoin:round;stroke-opacity:1" />
  <g
     transform="matrix(0.78153617,0,0,0.78153617,-13004.668,-29743.139)"
     id="g696"
     style="fill:#840000;fill-opacity:1;stroke:#840000;stroke-width:39.37009811;stroke-linecap:round;stroke-linejoin:round;stroke-opacity:1" />
  <g
     transform="matrix(0.78153617,0,0,0.78153617,-13004.668,-29743.139)"
     id="g698"
     style="fill:#840000;fill-opacity:1;stroke:#840000;stroke-width:3110.23999023;stroke-linecap:round;stroke-linejoin:round;stroke-opacity:1" />
  <g
     transform="matrix(0.78153617,0,0,0.78153617,-13004.668,-29743.139)"
     id="g716"
     style="fill:#840000;fill-opacity:1;stroke:#840000;stroke-width:39.37009811;stroke-linecap:round;stroke-linejoin:round;stroke-opacity:1" />
  <g
     transform="matrix(0.78153617,0,0,0.78153617,-13004.668,-29743.139)"
     id="g718"
     style="fill:#000000;fill-opacity:1;stroke:#000000;stroke-width:39.37009811;stroke-linecap:round;stroke-linejoin:round;stroke-opacity:1" />
  <g
     transform="matrix(0.78153617,0,0,0.78153617,-13004.668,-29743.139)"
     id="g724"
     style="fill:#008484;fill-opacity:1;stroke:#008484;stroke-width:0;stroke-linecap:round;stroke-linejoin:round;stroke-opacity:1" />
  <g
     transform="matrix(0.78153617,0,0,0.78153617,-13004.668,-29743.139)"
     id="g726"
     style="fill:#008484;fill-opacity:0;stroke:#008484;stroke-width:0;stroke-linecap:round;stroke-linejoin:round;stroke-opacity:1" />
  <g
     transform="matrix(0.78153617,0,0,0.78153617,-13004.668,-29743.139)"
     id="g826"
     style="fill:none;fill-opacity:0;stroke:#ffffff;stroke-width:157.47999573;stroke-linecap:round;stroke-linejoin:round;stroke-opacity:1">
    <path
       style="fill:none;stroke:#ffffff;stroke-opacity:1"
       id="path818"
       d="m 8391,29372 h 675" />
    <path
       style="fill:none;stroke:#ffffff;stroke-opacity:1"
       id="path820"
       d="M 8728,30553 V 29372" />
    <path
       style="fill:none;stroke:#ffffff;stroke-opacity:1"
       id="path822"
       d="M 10078,30553 H 9403" />
    <path
       style="fill:none;stroke:#ffffff;stroke-opacity:1"
       id="path824"
       d="m 9741,30553 v -1181 l -113,169 -112,113 -113,56" />
  </g>
  <g
     transform="matrix(0.78153617,0,0,0.78153617,-13004.668,-29743.139)"
     id="g856"
     style="fill:#008484;fill-opacity:0;stroke:#ffffff;stroke-width:157.47999573;stroke-linecap:round;stroke-linejoin:round;stroke-opacity:1">
    <path
       style="stroke:#ffffff;stroke-opacity:1"
       id="path850"
       d="m 16304,29372 h 675" />
    <path
       style="stroke:#ffffff;stroke-opacity:1"
       id="path852"
       d="M 16642,30553 V 29372" />
    <path
       style="stroke:#ffffff;stroke-opacity:1"
       id="path854"
       d="m 17317,29485 56,-56 112,-57 h 282 l 112,57 56,56 57,112 v 113 l -57,169 -675,674 h 732" />
  </g>
  <g
     transform="matrix(0.78153617,0,0,0.78153617,-13004.668,-29743.139)"
     id="g936"
     style="fill:#008484;fill-opacity:0;stroke:#ffffff;stroke-width:118.11000061;stroke-linecap:round;stroke-linejoin:round;stroke-opacity:1">
    <path
       style="stroke:#ffffff;stroke-opacity:1"
       id="path912"
       d="m 17292,47108 h -375 v -788" />
    <path
       style="stroke:#ffffff;stroke-opacity:1"
       id="path914"
       d="m 17705,46320 h 150 l 75,38 75,75 37,150 v 262 l -37,150 -75,75 -75,38 h -150 l -75,-38 -75,-75 -38,-150 v -262 l 38,-150 75,-75 75,-38" />
    <path
       style="stroke:#ffffff;stroke-opacity:1"
       id="path916"
       d="m 18530,46320 h 150 l 75,38 75,75 37,150 v 262 l -37,150 -75,75 -75,38 h -150 l -75,-38 -75,-75 -38,-150 v -262 l 38,-150 75,-75 75,-38" />
    <path
       style="stroke:#ffffff;stroke-opacity:1"
       id="path918"
       d="m 19205,47108 v -788 h 300 l 75,38 37,37 38,75 v 113 l -38,75 -37,37 -75,38 h -300" />
    <path
       style="stroke:#ffffff;stroke-opacity:1"
       id="path920"
       d="m 17198,39609 h -263" />
    <path
       style="stroke:#ffffff;stroke-opacity:1"
       id="path922"
       d="m 16935,40021 v -787 h 375" />
    <path
       style="stroke:#ffffff;stroke-opacity:1"
       id="path924"
       d="m 18060,40021 -262,-375" />
    <path
       style="stroke:#ffffff;stroke-opacity:1"
       id="path926"
       d="m 17610,40021 v -787 h 300 l 75,37 38,38 37,75 v 112 l -37,75 -38,38 -75,37 h -300" />
    <path
       style="stroke:#ffffff;stroke-opacity:1"
       id="path928"
       d="m 18398,39609 h 262" />
    <path
       style="stroke:#ffffff;stroke-opacity:1"
       id="path930"
       d="m 18772,40021 h -374 v -787 h 374" />
    <path
       style="stroke:#ffffff;stroke-opacity:1"
       id="path932"
       d="m 19635,40096 -75,-37 -75,-75 -113,-113 -75,-37 h -75" />
    <path
       style="stroke:#ffffff;stroke-opacity:1"
       id="path934"
       d="m 19260,40021 -75,-37 -75,-75 -38,-150 v -263 l 38,-150 75,-75 75,-37 h 150 l 75,37 75,75 37,150 v 263 l -37,150 -75,75 -75,37 h -150" />
  </g>
  <g
     transform="matrix(0.78153617,0,0,0.78153617,-13004.668,-29743.139)"
     id="g1052"
     style="fill:#008484;fill-opacity:0;stroke:#008484;stroke-width:3.93701005;stroke-linecap:round;stroke-linejoin:round;stroke-opacity:1" />
  <g
     transform="matrix(0.78153617,0,0,0.78153617,-13004.668,-29743.139)"
     id="g1094"
     style="fill:#c2c200;fill-opacity:0;stroke:#c2c200;stroke-width:59.05509949;stroke-linecap:round;stroke-linejoin:round;stroke-opacity:1" />
  <g
     transform="matrix(0.78153617,0,0,0.78153617,-13004.668,-29743.139)"
     id="g1114"
     style="fill:#000000;fill-opacity:0;stroke:#000000;stroke-width:78.74019623;stroke-linecap:round;stroke-linejoin:round;stroke-opacity:1" />
  <g
     transform="matrix(0.78153617,0,0,0.78153617,-13004.668,-29743.139)"
     id="g1116"
     style="fill:#c2c200;fill-opacity:0;stroke:#c2c200;stroke-width:78.74019623;stroke-linecap:round;stroke-linejoin:round;stroke-opacity:1" />
  <g
     transform="matrix(0.78153617,0,0,0.78153617,9250.0284,-29313.094)"
     id="g6714"
     style="fill:#000000;fill-opacity:1;stroke:#000000;stroke-linecap:round;stroke-linejoin:round;stroke-opacity:1" />
  <g
     transform="matrix(0.78153617,0,0,0.78153617,9250.0284,-29313.094)"
     id="g6716"
     style="fill:#008484;fill-opacity:0;stroke:#008484;stroke-width:-0.0003937;stroke-linecap:round;stroke-linejoin:round;stroke-opacity:1" />
  <g
     transform="matrix(0.78153617,0,0,0.78153617,9250.0284,-29313.094)"
     id="g6818"
     style="fill:#c2c200;fill-opacity:0;stroke:#c2c200;stroke-width:157.47999573;stroke-linecap:round;stroke-linejoin:round;stroke-opacity:1" />
  <g
     transform="matrix(0.78153617,0,0,0.78153617,9250.0284,-29313.094)"
     id="g6838"
     style="fill:#008484;fill-opacity:0;stroke:#008484;stroke-width:59.05509949;stroke-linecap:round;stroke-linejoin:round;stroke-opacity:1" />
  <g
     transform="matrix(0.78153617,0,0,0.78153617,9250.0284,-29313.094)"
     id="g7070"
     style="fill:#c2c200;fill-opacity:0;stroke:#c2c200;stroke-width:59.05509949;stroke-linecap:round;stroke-linejoin:round;stroke-opacity:1" />
  <g
     transform="matrix(0.78153617,0,0,0.78153617,9250.0284,-29313.094)"
     id="g7100"
     style="fill:#008484;fill-opacity:0;stroke:#008484;stroke-width:78.74019623;stroke-linecap:round;stroke-linejoin:round;stroke-opacity:1" />
</svg>
