<?xml version="1.0" encoding="UTF-8" standalone="no"?>
<!-- Created with Inkscape (http://www.inkscape.org/) -->

<svg
   xmlns:dc="http://purl.org/dc/elements/1.1/"
   xmlns:cc="http://creativecommons.org/ns#"
   xmlns:rdf="http://www.w3.org/1999/02/22-rdf-syntax-ns#"
   xmlns:svg="http://www.w3.org/2000/svg"
   xmlns="http://www.w3.org/2000/svg"
   xmlns:sodipodi="http://sodipodi.sourceforge.net/DTD/sodipodi-0.dtd"
   xmlns:inkscape="http://www.inkscape.org/namespaces/inkscape"
   width="14.099998mm"
   height="14.099998mm"
   viewBox="0 0 49.960625 49.960624"
   id="svg28857"
   version="1.1"
   inkscape:version="0.92.2 5c3e80d, 2017-08-06"
   sodipodi:docname="knob_sifam_blkcap.svg">
  <defs
     id="defs28859" />
  <sodipodi:namedview
     id="base"
     pagecolor="#ffffff"
     bordercolor="#666666"
     borderopacity="1.0"
     inkscape:pageopacity="0.0"
     inkscape:pageshadow="2"
     inkscape:zoom="11.2"
     inkscape:cx="4.7914574"
     inkscape:cy="28.507001"
     inkscape:document-units="px"
     inkscape:current-layer="layer10"
     showgrid="false"
     fit-margin-top="0"
     fit-margin-left="0"
     fit-margin-right="0"
     fit-margin-bottom="0"
     inkscape:window-width="1440"
     inkscape:window-height="818"
     inkscape:window-x="0"
     inkscape:window-y="1"
     inkscape:window-maximized="1"
     inkscape:object-paths="true"
     inkscape:object-nodes="true"
     inkscape:snap-center="false"
     inkscape:snap-object-midpoints="true"
     showguides="true"
     inkscape:guide-bbox="true">
    <sodipodi:guide
       position="24.980242,24.980337"
       orientation="1,0"
       id="guide819"
       inkscape:locked="false" />
  </sodipodi:namedview>
  <metadata
     id="metadata28862">
    <rdf:RDF>
      <cc:Work
         rdf:about="">
        <dc:format>image/svg+xml</dc:format>
        <dc:type
           rdf:resource="http://purl.org/dc/dcmitype/StillImage" />
        <dc:title />
      </cc:Work>
    </rdf:RDF>
  </metadata>
  <g
     inkscape:groupmode="layer"
     id="layer10"
     inkscape:label="Layer 2"
     style="display:inline"
     transform="translate(-1.0417231,-0.63135188)">
    <circle
       transform="translate(-337.87683,-464.52475)"
       r="24.803146"
       cy="490.13641"
       cx="363.89886"
       id="path12117-3-59-1-0-6-7-6-9-8-10-2"
       style="display:inline;opacity:1;fill:#191919;fill-opacity:1;stroke:#646464;stroke-width:0.35433066;stroke-linecap:butt;stroke-linejoin:miter;stroke-miterlimit:4;stroke-dasharray:none;stroke-dashoffset:0;stroke-opacity:0.39215686" />
    <path
       transform="translate(-337.87683,-464.52475)"
       inkscape:connector-curvature="0"
       style="opacity:1;fill:#323232;fill-opacity:1;stroke:none;stroke-width:0.1;stroke-linecap:butt;stroke-linejoin:miter;stroke-miterlimit:4;stroke-dasharray:none;stroke-dashoffset:0;stroke-opacity:1"
       d="m 384.41634,490.13642 c 0,0.11069 -8.8e-4,0.22118 -0.003,0.33146 -3.5e-4,0.0221 -1.87574,-0.15892 -1.876,-0.13682 -0.0331,1.73979 -0.2749,3.24688 -0.71526,4.85483 -0.007,0.0247 1.85362,0.43218 1.84677,0.45683 -1.42878,5.14099 -4.809,9.46962 -9.29259,12.13784 -0.0443,0.0264 -1.01131,-1.77042 -1.05584,-1.74437 -1.45641,0.8519 -2.82735,1.4618 -4.48397,1.93627 -0.0181,0.005 0.68655,1.90094 0.66848,1.90606 -1.78193,0.50504 -3.66252,0.77532 -5.60624,0.77532 -3.76499,0 -7.29312,-1.0141 -10.32616,-2.78405 -0.0311,-0.0181 1.10967,-1.73942 1.07877,-1.75772 -1.48051,-0.87444 -2.68537,-1.78113 -3.89675,-2.98659 -0.0183,-0.0182 -1.36462,1.51829 -1.38282,1.49999 -3.7018,-3.71141 -5.99048,-8.83295 -5.99048,-14.48905 0,-0.11507 9.5e-4,-0.22992 0.003,-0.34455 2.6e-4,-0.0155 2.08647,0.21109 2.08676,0.19559 0.0325,-1.73685 0.28858,-3.26467 0.727,-4.87026 0.004,-0.0159 -2.08506,-0.43019 -2.08068,-0.44605 1.4476,-5.25125 4.93017,-9.6587 9.54617,-12.32081 0.0184,-0.0106 1.02922,1.76149 1.04738,1.75033 1.52569,-0.93771 2.73062,-1.45964 4.42405,-1.91958 0.0415,-0.0113 -0.72852,-1.80023 -0.68686,-1.81133 1.68055,-0.44501 3.63033,-0.75082 5.45083,-0.75082 3.63581,0 7.05073,0.9457 10.01222,2.60454 0.0196,0.011 -1.04918,1.6627 -1.02968,1.67371 1.32165,0.74602 2.53647,1.68682 3.88099,2.99749 0.0178,0.0173 1.3051,-1.43791 1.32287,-1.42044 4.97658,4.89136 6.331,14.66217 6.331,14.66217 z"
       id="path12117-2-8-8-3-6-6-9-0-2-2-3-6"
       sodipodi:nodetypes="cssssssssssssssssssssssssssscc" />
    <circle
       transform="translate(-337.87683,-464.52475)"
       style="opacity:1;fill:#000000;fill-opacity:1;stroke:none;stroke-width:9.99921227;stroke-linecap:butt;stroke-linejoin:miter;stroke-miterlimit:4;stroke-dasharray:none;stroke-dashoffset:0;stroke-opacity:1"
       id="path12117-2-44-0-7-0-7-6-5-2-1"
       cx="364.00293"
       cy="490.13641"
       r="16.321007" />
    <path
       transform="translate(-337.87683,-464.52475)"
       style="fill:#000000;fill-opacity:1;fill-rule:evenodd;stroke:#ffffff;stroke-width:2.79999995;stroke-linecap:butt;stroke-linejoin:miter;stroke-miterlimit:4;stroke-dasharray:none;stroke-opacity:1"
       d="m 363.8988,473.89989 0,16.2365"
       id="path12299-4-4-3-0-0-9-4-8-8"
       inkscape:connector-curvature="0"
       sodipodi:nodetypes="cc" />
  </g>
</svg>
